<svg width="114" height="92" viewBox="0 0 114 92" fill="none" xmlns="http://www.w3.org/2000/svg">
<g opacity="0.2">
<path d="M74.4429 29.3127C54.608 23.4878 37.4357 13.2158 24.6626 0H1.00734C1.00734 0.438439 0.96875 0.84556 0.96875 1.284C0.96875 51.2347 50.8648 91.6963 112.376 91.6963C112.917 91.6963 113.418 91.665 113.958 91.665V73.9082C95.6671 62.8533 81.6591 47.32 74.4429 29.3127Z" fill="#FD4F02"/>
<path d="M113.998 34.6679V0H24.6641C45.0778 21.1077 76.7597 34.6993 112.378 34.6993C112.918 34.6993 113.458 34.6679 113.998 34.6679Z" fill="#F97C4B"/>
<path d="M113.999 73.9082V0H69.0034C69.0034 0.438438 68.9648 0.84556 68.9648 1.284C68.9648 31.0352 86.6774 57.4354 113.999 73.9082Z" fill="#D60707"/>
</g>
</svg>
